HIERARCHY
ROOT reference
{
  OFFSET 0 0 0
  CHANNELS 6 Xposition Yposition Zposition Zrotation Xrotation Yrotation
  JOINT Hips
  {
    OFFSET 368.823 89.7904 194.012
    CHANNELS 3 Zrotation Xrotation Yrotation
    JOINT RightUpLeg
    {
      OFFSET -9.24587 -1.53924 -0.0496539
      CHANNELS 3 Zrotation Xrotation Yrotation
      JOINT RightLeg
      {
        OFFSET 0.0288962 -41.8853 0.065208
        CHANNELS 3 Zrotation Xrotation Yrotation
        JOINT RightFoot
        {
          OFFSET -0.153961 -42.496 -0.469978
          CHANNELS 3 Zrotation Xrotation Yrotation
          End Site
          {
            OFFSET 0 -7.69 17.5
          }
        }
      }
    }
    JOINT LeftUpLeg
    {
      OFFSET 9.30368 -1.65799 0.0114032
      CHANNELS 3 Zrotation Xrotation Yrotation
      JOINT LeftLeg
      {
        OFFSET 0.0812002 -41.8405 -0.136291
        CHANNELS 3 Zrotation Xrotation Yrotation
        JOINT LeftFoot
        {
          OFFSET 0.408244 -41.1613 0.400562
          CHANNELS 3 Zrotation Xrotation Yrotation
          End Site
          {
            OFFSET 0 -7.69 17.5
          }
        }
      }
    }
    JOINT Spine
    {
      OFFSET 0.0091145 14.2923 0.0603898
      CHANNELS 3 Zrotation Xrotation Yrotation
      JOINT Spine1
      {
        OFFSET 0.0313032 9.72692 0.0269052
        CHANNELS 3 Zrotation Xrotation Yrotation
        JOINT Spine2
        {
          OFFSET 0.0416827 10.1254 -0.000588186
          CHANNELS 3 Zrotation Xrotation Yrotation
          JOINT Spine3
          {
            OFFSET 0.0353017 9.71596 0.00525809
            CHANNELS 3 Zrotation Xrotation Yrotation
            JOINT Neck
            {
              OFFSET 0.0870676 10.3793 0.0454457
              CHANNELS 3 Zrotation Xrotation Yrotation
              JOINT Head
              {
                OFFSET 0.0878806 9.48152 0.0233162
                CHANNELS 3 Zrotation Xrotation Yrotation
                End Site
                {
                  OFFSET 0 15.95 0
                }
              }
            }
            JOINT RightShoulder
            {
              OFFSET -3.16008 6.92912 0.0289115
              CHANNELS 3 Zrotation Xrotation Yrotation
              JOINT RightArm
              {
                OFFSET -12.7589 0.0216905 0.0632467
                CHANNELS 3 Zrotation Xrotation Yrotation
                JOINT RightForeArm
                {
                  OFFSET -26.506 -0.0577999 0.0567862
                  CHANNELS 3 Zrotation Xrotation Yrotation
                  JOINT RightHand
                  {
                    OFFSET -25.9836 -0.0526551 -0.00138994
                    CHANNELS 3 Zrotation Xrotation Yrotation
                    JOINT RightHandThumb1
                    {
                      OFFSET -2.48905 0.190105 3.12053
                      CHANNELS 3 Zrotation Xrotation Yrotation
                      JOINT RightHandThumb2
                      {
                        OFFSET -3.68274 0 0
                        CHANNELS 3 Zrotation Xrotation Yrotation
                        JOINT RightHandThumb3
                        {
                          OFFSET -2.55832 0 0
                          CHANNELS 3 Zrotation Xrotation Yrotation
                          End Site
                          {
                            OFFSET -2.194 0 0
                          }
                        }
                      }
                    }
                    JOINT RightInHandIndex
                    {
                      OFFSET -3.22368 0.508421 1.97842
                      CHANNELS 3 Zrotation Xrotation Yrotation
                      JOINT RightHandIndex1
                      {
                        OFFSET -5.21684 -0.091368 0.999158
                        CHANNELS 3 Zrotation Xrotation Yrotation
                        JOINT RightHandIndex2
                        {
                          OFFSET -3.61937 0 0
                          CHANNELS 3 Zrotation Xrotation Yrotation
                          JOINT RightHandIndex3
                          {
                            OFFSET -2.0521 0 0
                            CHANNELS 3 Zrotation Xrotation Yrotation
                            End Site
                            {
                              OFFSET -1.805 0 0
                            }
                          }
                        }
                      }
                    }
                    JOINT RightInHandMiddle
                    {
                      OFFSET -3.38211 0.517263 0.756737
                      CHANNELS 3 Zrotation Xrotation Yrotation
                      JOINT RightHandMiddle1
                      {
                        OFFSET -5.17411 -0.084 0.313895
                        CHANNELS 3 Zrotation Xrotation Yrotation
                        JOINT RightHandMiddle2
                        {
                          OFFSET -3.94947 0 0
                          CHANNELS 3 Zrotation Xrotation Yrotation
                          JOINT RightHandMiddle3
                          {
                            OFFSET -2.47579 0 0
                            CHANNELS 3 Zrotation Xrotation Yrotation
                            End Site
                            {
                              OFFSET -1.975 0 0
                            }
                          }
                        }
                      }
                    }
                    JOINT RightInHandRing
                    {
                      OFFSET -3.36516 0.537895 -0.128947
                      CHANNELS 3 Zrotation Xrotation Yrotation
                      JOINT RightHandRing1
                      {
                        OFFSET -4.63474 -0.022105 -0.478947
                        CHANNELS 3 Zrotation Xrotation Yrotation
                        JOINT RightHandRing2
                        {
                          OFFSET -3.44238 0 0
                          CHANNELS 3 Zrotation Xrotation Yrotation
                          JOINT RightHandRing3
                          {
                            OFFSET -2.3881 0 0
                            CHANNELS 3 Zrotation Xrotation Yrotation
                            End Site
                            {
                              OFFSET -1.857 0 0
                            }
                          }
                        }
                      }
                    }
                    JOINT RightInHandPinky
                    {
                      OFFSET -3.16105 0.469368 -1.20179
                      CHANNELS 3 Zrotation Xrotation Yrotation
                      JOINT RightHandPinky1
                      {
                        OFFSET -4.14105 -0.022105 -1.09053
                        CHANNELS 3 Zrotation Xrotation Yrotation
                        JOINT RightHandPinky2
                        {
                          OFFSET -2.75653 0 0
                          CHANNELS 3 Zrotation Xrotation Yrotation
                          JOINT RightHandPinky3
                          {
                            OFFSET -1.74189 0 0
                            CHANNELS 3 Zrotation Xrotation Yrotation
                            End Site
                            {
                              OFFSET -1.645 0 0
                            }
                          }
                        }
                      }
                    }
                  }
                }
              }
            }
            JOINT LeftShoulder
            {
              OFFSET 3.24363 6.91883 -0.0263005
              CHANNELS 3 Zrotation Xrotation Yrotation
              JOINT LeftArm
              {
                OFFSET 12.8387 -0.0254922 -0.065819
                CHANNELS 3 Zrotation Xrotation Yrotation
                JOINT LeftForeArm
                {
                  OFFSET 26.503 -0.0679028 -0.0690065
                  CHANNELS 3 Zrotation Xrotation Yrotation
                  JOINT LeftHand
                  {
                    OFFSET 25.9897 -0.0384179 -0.0536179
                    CHANNELS 3 Zrotation Xrotation Yrotation
                    JOINT LeftHandThumb1
                    {
                      OFFSET 2.48905 0.190105 3.12053
                      CHANNELS 3 Zrotation Xrotation Yrotation
                      JOINT LeftHandThumb2
                      {
                        OFFSET 3.68274 0 0
                        CHANNELS 3 Zrotation Xrotation Yrotation
                        JOINT LeftHandThumb3
                        {
                          OFFSET 2.55832 0 0
                          CHANNELS 3 Zrotation Xrotation Yrotation
                          End Site
                          {
                            OFFSET 2.194 0 0
                          }
                        }
                      }
                    }
                    JOINT LeftInHandIndex
                    {
                      OFFSET 3.22368 0.508421 1.97842
                      CHANNELS 3 Zrotation Xrotation Yrotation
                      JOINT LeftHandIndex1
                      {
                        OFFSET 5.21684 -0.091368 0.999158
                        CHANNELS 3 Zrotation Xrotation Yrotation
                        JOINT LeftHandIndex2
                        {
                          OFFSET 3.61937 0 0
                          CHANNELS 3 Zrotation Xrotation Yrotation
                          JOINT LeftHandIndex3
                          {
                            OFFSET 2.0521 0 0
                            CHANNELS 3 Zrotation Xrotation Yrotation
                            End Site
                            {
                              OFFSET 1.805 0 0
                            }
                          }
                        }
                      }
                    }
                    JOINT LeftInHandMiddle
                    {
                      OFFSET 3.38211 0.517263 0.756737
                      CHANNELS 3 Zrotation Xrotation Yrotation
                      JOINT LeftHandMiddle1
                      {
                        OFFSET 5.17411 -0.084 0.313895
                        CHANNELS 3 Zrotation Xrotation Yrotation
                        JOINT LeftHandMiddle2
                        {
                          OFFSET 3.94947 0 0
                          CHANNELS 3 Zrotation Xrotation Yrotation
                          JOINT LeftHandMiddle3
                          {
                            OFFSET 2.47579 0 0
                            CHANNELS 3 Zrotation Xrotation Yrotation
                            End Site
                            {
                              OFFSET 1.975 0 0
                            }
                          }
                        }
                      }
                    }
                    JOINT LeftInHandRing
                    {
                      OFFSET 3.36516 0.537895 -0.128947
                      CHANNELS 3 Zrotation Xrotation Yrotation
                      JOINT LeftHandRing1
                      {
                        OFFSET 4.63474 -0.022105 -0.478947
                        CHANNELS 3 Zrotation Xrotation Yrotation
                        JOINT LeftHandRing2
                        {
                          OFFSET 3.44238 0 0
                          CHANNELS 3 Zrotation Xrotation Yrotation
                          JOINT LeftHandRing3
                          {
                            OFFSET 2.3881 0 0
                            CHANNELS 3 Zrotation Xrotation Yrotation
                            End Site
                            {
                              OFFSET 1.857 0 0
                            }
                          }
                        }
                      }
                    }
                    JOINT LeftInHandPinky
                    {
                      OFFSET 3.16105 0.469368 -1.20179
                      CHANNELS 3 Zrotation Xrotation Yrotation
                      JOINT LeftHandPinky1
                      {
                        OFFSET 4.14105 -0.022105 -1.09053
                        CHANNELS 3 Zrotation Xrotation Yrotation
                        JOINT LeftHandPinky2
                        {
                          OFFSET 2.75653 0 0
                          CHANNELS 3 Zrotation Xrotation Yrotation
                          JOINT LeftHandPinky3
                          {
                            OFFSET 1.74189 0 0
                            CHANNELS 3 Zrotation Xrotation Yrotation
                            End Site
                            {
                              OFFSET 1.645 0 0
                            }
                          }
                        }
                      }
                    }
                  }
                }
              }
            }
          }
        }
      }
    }
  }
}
MOTION
Frames: 2
Frame Time: 0.00833333
1.500000000000000000e+02 0.000000000000000000e+00 0.000000000000000000e+00 0.000000000000000000e+00 0.000000000000000000e+00 -0.000000000000000000e+00 -1.221332407228237996e-04 4.636922786436159516e-02 9.834440533902194526e-02 1.338308377071045219e-01 1.854881043516785552e-02 4.998807874652525518e-01 1.111158334136493342e-01 1.587365293886043027e-01 -1.986215250965616963e-01 5.715296766117537730e-02 -2.330612512938974867e-01 -3.139093953211014587e-01 -5.319396841705429507e-02 -2.493430307886149166e-02 -1.254315456781965044e-01 2.606041478409859558e-02 -4.653739731383598616e-02 2.297722106962392027e-02 -4.482313971148568776e-02 2.942617667081041943e-02 -4.391131891285525446e-02 -1.824480676280292868e-01 3.649827623083914258e-02 2.631462140303155728e-01 -4.126352269800532407e-02 2.563264979938164462e-02 6.177272220902225996e-02 -6.595310793945002859e-02 4.389061684833767130e-02 9.161672166700210451e-02 1.816886668189438003e-02 -4.791770085807414876e-03 -2.466811889294886345e-02 1.816278287375547654e-02 -4.894614281567746805e-03 -2.465478643547872745e-02 2.959397827186254215e-01 -1.438582045032318624e-01 -4.366620201298757609e-01 4.090624698091197553e-01 -3.163254757691295049e-01 -9.112472782705927088e-01 7.103339418462259469e-02 2.814506352003313117e-01 2.078241365806730162e-03 -1.068356925735187923e+00 4.895157360457642048e-01 -1.450437834731689524e+00 -1.224057474252316480e+00 9.215072965436974517e-01 -2.394576265205071497e+00 0.000000000000000000e+00 0.000000000000000000e+00 0.000000000000000000e+00 -2.311311338187169080e-15 4.936532350638911208e-15 0.000000000000000000e+00 9.430752377145941499e-15 1.311344297397433627e-15 0.000000000000000000e+00 -1.906229381052562835e-15 -8.294484074957402981e-15 -4.148924373475282127e-15 0.000000000000000000e+00 0.000000000000000000e+00 0.000000000000000000e+00 0.000000000000000000e+00 -6.595674301069884873e-15 -3.121252707425680832e-14 0.000000000000000000e+00 -4.542258208662887177e-15 -3.554968053989840236e-14 -1.906229381052562835e-15 -8.294484074957402981e-15 -4.148924373475282127e-15 0.000000000000000000e+00 -1.303102457796807895e-15 -1.428690542482533604e-14 0.000000000000000000e+00 -1.536336040971289837e-14 -3.258810819927834024e-14 0.000000000000000000e+00 -1.356616847446881143e-14 -3.784839482449246149e-14 -1.906229381052562835e-15 -8.294484074957402981e-15 -4.148924373475282127e-15 0.000000000000000000e+00 0.000000000000000000e+00 0.000000000000000000e+00 0.000000000000000000e+00 -8.221698550432168502e-15 -3.676051022884637356e-14 0.000000000000000000e+00 -1.551822703465780068e-15 -9.432101971284586630e-15 -1.906229381052562835e-15 -8.294484074957402981e-15 -4.148924373475282127e-15 0.000000000000000000e+00 0.000000000000000000e+00 0.000000000000000000e+00 0.000000000000000000e+00 1.069305044836888137e-14 -1.796940726645162944e-15 0.000000000000000000e+00 2.662533571272440179e-15 -2.236370717722222866e-14 6.349457650563161693e-01 -6.445706402612223496e-01 -1.719171606737733393e+00 -1.970822740696839714e+00 -7.144552891546315232e-01 2.195752236113919231e+00 -4.441918250019250558e-01 -1.223727850138862511e-01 -3.863977513155296695e-01 -9.324626442346861666e-02 8.131325627957977642e-02 -1.503799757382813865e-02 0.000000000000000000e+00 0.000000000000000000e+00 0.000000000000000000e+00 6.432450103618898033e-16 -6.308889816890516877e-15 0.000000000000000000e+00 1.253280911548377485e-14 -3.351088692865891464e-15 0.000000000000000000e+00 7.903729581237500718e-15 5.103480136333562878e-15 -1.065439043431176726e-15 0.000000000000000000e+00 0.000000000000000000e+00 0.000000000000000000e+00 0.000000000000000000e+00 -3.805212147509687377e-15 8.201025412128983238e-15 0.000000000000000000e+00 4.256390078113459766e-16 2.356867641374890769e-14 7.903729581237500718e-15 5.103480136333562878e-15 -1.065439043431176726e-15 0.000000000000000000e+00 2.118100207116412249e-15 9.986452464864086311e-16 0.000000000000000000e+00 -9.868627087654401888e-15 5.282342258195999898e-15 0.000000000000000000e+00 -4.657092411414282915e-15 1.750132522516996956e-14 7.903729581237500718e-15 5.103480136333562878e-15 -1.065439043431176726e-15 0.000000000000000000e+00 0.000000000000000000e+00 0.000000000000000000e+00 0.000000000000000000e+00 -3.088331641868314832e-16 1.218425614294150495e-14 0.000000000000000000e+00 -1.133693567728118297e-15 1.334043580938273237e-14 7.903729581237500718e-15 5.103480136333562878e-15 -1.065439043431176726e-15 0.000000000000000000e+00 0.000000000000000000e+00 0.000000000000000000e+00 0.000000000000000000e+00 2.843086669216426854e-15 9.732254051012459965e-15 0.000000000000000000e+00 2.819130110335991142e-16 1.407010100676160392e-14
1.500000000000000000e+02 0.000000000000000000e+00 0.000000000000000000e+00 0.000000000000000000e+00 0.000000000000000000e+00 -0.000000000000000000e+00 3.669025394088293486e-03 -7.149021596598106876e-02 -1.629751780719480014e-01 3.627905243914632538e-01 -1.048013718675979561e-02 7.846304414044736886e-01 6.032665625544665622e-02 7.980791158948281894e-02 -1.480337377267983145e-01 2.599867502374579240e-02 -9.366994586604537876e-02 -2.220261906852828149e-01 1.352652109336852926e-01 6.551509375025971194e-02 3.777080405660471762e-01 4.496949278132242322e-02 -3.441707827245120421e-02 -1.321616440257617209e-01 3.151794388709094072e-05 -4.832143438547313596e-03 -4.646539259666581517e-03 -2.173119588559315751e-01 1.572119901971584868e-02 3.363370507277003707e-01 -4.928648522257305514e-02 2.226190315340360534e-02 7.981461937228423453e-02 -7.869904117650787512e-02 3.912640612470325713e-02 1.189690089134667061e-01 1.284335212509500439e-02 -3.769988103940720772e-03 -1.930539123964120085e-02 1.282989440320266017e-02 -3.860009652850005142e-03 -1.927559624104302483e-02 2.056997492878831491e-01 -1.126531042810277605e-01 -3.413669157558841816e-01 3.529967500688342419e-01 -1.785670637054780630e-01 -7.617378724661163503e-01 4.037588244387812497e-01 -2.174174102640207273e-01 -1.032032883703795784e-01 -7.880684876474157718e-01 8.966846044516756375e-01 -1.132970971229183776e+00 -1.035708894024939264e+00 6.576664749748463157e-01 -2.060968009567934800e+00 0.000000000000000000e+00 0.000000000000000000e+00 0.000000000000000000e+00 -9.356769235649394366e-15 1.267083966901062315e-14 0.000000000000000000e+00 1.024823601951300715e-14 5.203833206081070969e-15 0.000000000000000000e+00 -4.482627650463746536e-15 -3.744573363222210649e-15 -6.078668793374683102e-15 0.000000000000000000e+00 0.000000000000000000e+00 0.000000000000000000e+00 0.000000000000000000e+00 -5.164486251397704063e-15 -2.241578920880097232e-14 0.000000000000000000e+00 -5.705704647337831452e-15 -3.248525878838889898e-14 -4.482627650463746536e-15 -3.744573363222210649e-15 -6.078668793374683102e-15 0.000000000000000000e+00 1.712586585929415715e-15 -3.696898251914727232e-15 0.000000000000000000e+00 -1.186660970258064704e-14 -2.995868645845672847e-14 0.000000000000000000e+00 -1.365691846656062457e-14 -1.037802335544852970e-14 -4.482627650463746536e-15 -3.744573363222210649e-15 -6.078668793374683102e-15 0.000000000000000000e+00 0.000000000000000000e+00 0.000000000000000000e+00 0.000000000000000000e+00 -1.260696008289007479e-14 -3.759343048638056722e-14 0.000000000000000000e+00 -3.770993837376457940e-15 -1.951010111704843693e-14 -4.482627650463746536e-15 -3.744573363222210649e-15 -6.078668793374683102e-15 0.000000000000000000e+00 0.000000000000000000e+00 0.000000000000000000e+00 0.000000000000000000e+00 1.524573189683312636e-15 -1.427271867738800893e-15 0.000000000000000000e+00 -5.707284903901980390e-15 -1.056122044858850300e-14 5.369058865710520934e-01 -5.221174540858524171e-01 -1.383585892158657904e+00 -1.434290774197667817e+00 -5.240328213718684625e-01 1.610467190043920027e+00 -3.265075761715405256e-01 4.318463821440614997e-03 -2.752621588416007126e-01 -3.498857021743819185e-01 -7.807244501641407153e-01 -2.586528408199724738e-01 0.000000000000000000e+00 0.000000000000000000e+00 0.000000000000000000e+00 8.529355126865829105e-15 -3.002221733332414098e-16 0.000000000000000000e+00 1.927973062436346310e-14 -3.512164474798116535e-15 0.000000000000000000e+00 4.153789481428856747e-15 -4.033040490484215116e-15 -4.143641305196368956e-15 0.000000000000000000e+00 0.000000000000000000e+00 0.000000000000000000e+00 0.000000000000000000e+00 -4.552136743828504917e-15 -7.961039954837069549e-16 0.000000000000000000e+00 -2.440936193411018851e-15 1.362105183722020365e-14 4.153789481428856747e-15 -4.033040490484215116e-15 -4.143641305196368956e-15 0.000000000000000000e+00 9.723891943182891217e-15 -1.388655122133369142e-14 0.000000000000000000e+00 3.091867903024402851e-16 -1.184562596115500271e-14 0.000000000000000000e+00 -6.884188924708217455e-15 -8.558336779547922684e-15 4.153789481428856747e-15 -4.033040490484215116e-15 -4.143641305196368956e-15 0.000000000000000000e+00 0.000000000000000000e+00 0.000000000000000000e+00 0.000000000000000000e+00 1.025320943095691679e-14 -1.073219766563637090e-14 0.000000000000000000e+00 1.401773242929302153e-15 -8.427582906321039723e-15 4.153789481428856747e-15 -4.033040490484215116e-15 -4.143641305196368956e-15 0.000000000000000000e+00 0.000000000000000000e+00 0.000000000000000000e+00 0.000000000000000000e+00 6.153208165879168900e-15 -1.579082840905900781e-14 0.000000000000000000e+00 -2.466704341027631387e-15 9.872369349562020522e-15
